<?xml version="1.0" standalone="no"?>
<!DOCTYPE svg PUBLIC "-//W3C//DTD SVG 20010904//EN"
 "http://www.w3.org/TR/2001/REC-SVG-20010904/DTD/svg10.dtd">
<svg version="1.0" xmlns="http://www.w3.org/2000/svg"
 width="953.000000pt" height="968.000000pt" viewBox="0 0 953.000000 968.000000"
 preserveAspectRatio="xMidYMid meet">

<g transform="translate(0.000000,968.000000) scale(0.100000,-0.100000)"
fill="#000000" stroke="none">
<path d="M4400 8189 c-1084 -107 -2051 -708 -2616 -1626 -263 -426 -421 -873
-489 -1383 -22 -162 -30 -524 -16 -695 56 -671 284 -1277 676 -1800 502 -669
1211 -1128 2025 -1309 269 -59 379 -70 730 -71 262 0 350 4 455 18 646 91
1224 337 1720 733 141 113 416 387 529 529 734 917 953 2133 586 3245 -133
403 -322 753 -583 1077 -563 701 -1349 1143 -2257 1269 -137 19 -618 27 -760
13z m-32 -234 c24 -10 87 -68 177 -161 103 -106 146 -144 164 -144 16 0 64 39
160 134 158 154 209 186 298 186 83 0 182 -30 241 -74 71 -52 203 -202 247
-280 76 -137 158 -413 175 -591 21 -231 7 -499 -35 -680 -15 -60 -29 -121 -32
-135 -6 -24 -6 -24 20 -7 301 197 625 314 937 337 339 25 487 0 657 -113 85
-57 207 -181 233 -238 43 -95 14 -223 -84 -379 -74 -117 -79 -141 -34 -183 19
-17 95 -62 169 -99 255 -127 279 -155 287 -333 4 -90 1 -115 -18 -176 -42
-129 -133 -241 -282 -345 -186 -130 -250 -169 -393 -240 -154 -77 -304 -129
-470 -164 -139 -28 -212 -40 -255 -40 -26 0 -68 -3 -93 -6 l-45 -6 71 -58 c40
-31 127 -114 194 -184 205 -211 343 -445 441 -741 58 -174 64 -223 54 -400 -8
-119 -11 -136 -44 -205 -36 -78 -124 -176 -191 -212 -53 -29 -210 -21 -421 22
-46 10 -51 9 -76 -15 -31 -30 -46 -83 -60 -222 -17 -159 -32 -198 -104 -270
-78 -78 -129 -95 -290 -96 -94 0 -129 4 -230 32 -65 17 -145 45 -176 62 -65
34 -254 202 -405 360 -163 170 -348 460 -404 637 -13 40 -27 72 -31 72 -4 0
-12 -19 -19 -42 -28 -93 -191 -393 -273 -503 -163 -217 -402 -428 -592 -521
-49 -24 -94 -48 -100 -53 -32 -26 -152 -51 -242 -51 -81 0 -106 4 -174 30 -66
26 -88 40 -137 93 -69 74 -76 94 -99 282 -25 211 -41 232 -152 201 -31 -8
-118 -21 -193 -28 -125 -11 -140 -10 -184 6 -175 67 -291 394 -244 686 18 113
107 341 192 495 92 163 302 432 386 493 46 33 131 108 131 114 0 3 -35 11 -77
18 -303 49 -399 71 -568 130 -284 101 -655 354 -748 511 -61 104 -82 185 -81
314 2 225 72 312 341 421 51 20 94 43 97 51 5 12 -46 131 -144 336 -27 57 -32
77 -28 120 7 81 34 124 137 225 82 80 110 101 196 143 55 26 125 54 155 61 69
16 411 15 525 -1 96 -14 278 -57 320 -76 17 -7 53 -20 80 -29 55 -18 311 -146
402 -201 31 -19 58 -33 59 -32 2 1 -11 54 -27 116 -35 139 -49 275 -49 482 0
203 14 333 50 474 75 288 155 423 333 563 159 125 280 166 375 127z"/>
</g>
</svg>
